<?xml version="1.0" encoding="utf-8"?>
<!-- Generator: Adobe Illustrator 16.0.0, SVG Export Plug-In . SVG Version: 6.00 Build 0)  -->
<!DOCTYPE svg PUBLIC "-//W3C//DTD SVG 1.1//EN" "http://www.w3.org/Graphics/SVG/1.1/DTD/svg11.dtd">
<svg version="1.1" id="Layer_1" xmlns="http://www.w3.org/2000/svg" xmlns:xlink="http://www.w3.org/1999/xlink" x="0px" y="0px"
	 width="900px" height="80px" viewBox="-150 -18.7 900 80" style="enable-background:new -150 -18.7 900 80;" xml:space="preserve">
<style type="text/css">
<![CDATA[
	.st0{fill:#F9F9F9;}
	.st1{opacity:0.1;}
]]>
</style>
<g>
	<g class="st1">
		<path d="M107.7-3.9c1.1-0.1,2.3-0.3,3.6-0.4c1.4-0.1,2.8-0.2,4.2-0.2c1.5,0,2.9-0.1,4.3-0.1c1.4,0,2.6,0,3.7,0
			c4.8,0,8.9,0.6,12.3,1.9c3.4,1.3,6.2,3,8.4,5.3c2.2,2.3,3.8,4.9,4.8,8.1c1,3.1,1.5,6.5,1.5,10.2c0,3.4-0.5,6.6-1.5,9.8
			c-1,3.2-2.6,6-4.8,8.5c-2.2,2.5-5.1,4.5-8.6,5.9c-3.6,1.5-7.9,2.2-13.1,2.2c-0.8,0-1.9,0-3.3-0.1c-1.4,0-2.9-0.1-4.4-0.2
			s-2.9-0.1-4.2-0.2c-1.3-0.1-2.3-0.2-3-0.3V-3.9z M124.5,4.7c-1.1,0-2.2,0-3.4,0c-1.2,0-2,0.1-2.7,0.2v32.7c0.2,0,0.6,0.1,1.1,0.1
			c0.5,0,1,0,1.6,0.1c0.6,0,1.1,0,1.6,0.1s0.9,0,1.1,0c3.1,0,5.6-0.5,7.6-1.4c2-1,3.6-2.2,4.8-3.8c1.2-1.6,2-3.4,2.5-5.4
			c0.5-2,0.7-4.1,0.7-6.3c0-1.8-0.2-3.6-0.6-5.5c-0.4-1.9-1.2-3.7-2.3-5.3c-1.1-1.6-2.7-2.9-4.6-3.9C129.9,5.2,127.5,4.7,124.5,4.7z
			"/>
		<path d="M177.1-3.4c1.2-0.2,2.4-0.4,3.8-0.5c1.4-0.2,2.7-0.3,4.1-0.4c1.4-0.1,2.7-0.2,4.1-0.2c1.3,0,2.5-0.1,3.6-0.1
			c2.5,0,5.1,0.2,7.5,0.6c2.5,0.4,4.7,1.2,6.6,2.2c1.9,1.1,3.5,2.5,4.7,4.4c1.2,1.8,1.8,4.2,1.8,6.9c0,4.1-1,7.5-3.1,10.2
			c-2,2.7-4.9,4.5-8.5,5.4l3.8,2.2l12.6,19.1h-12.4L193.4,27l-5.6-0.9v20.4h-10.7V-3.4z M193.4,4.7c-1.1,0-2.2,0-3.2,0
			c-1,0-1.9,0.1-2.5,0.3v13.9h4.5c3,0,5.4-0.6,7.2-1.7c1.8-1.2,2.6-3.1,2.6-6c0-2.1-0.7-3.7-2.2-4.8C198.3,5.3,196.2,4.7,193.4,4.7z
			"/>
		<path d="M236.8,41.6c0-1.8,0.6-3.2,1.7-4.2s2.7-1.5,4.5-1.5c1.9,0,3.5,0.5,4.6,1.5s1.7,2.4,1.7,4.2c0,1.7-0.6,3-1.7,4.1
			s-2.7,1.6-4.6,1.6c-1.9,0-3.4-0.5-4.5-1.6S236.8,43.3,236.8,41.6z"/>
		<path d="M283.3,27.9l-18-31.8H278L288,14.6l1.2,5.4h0.4l1.2-5.5l9.7-18.4h11.4l-18,31.8v18.6h-10.7V27.9z"/>
		<path d="M358.1,35.7h-17L337,46.5h-10.7l19.7-50.8h7.8l19.8,50.8h-11.3L358.1,35.7z M344.1,27.3h11.5l-3.9-10.5l-1.7-8h-0.4
			l-1.7,8.1L344.1,27.3z"/>
		<path d="M437.3,21.2l1.2-10.4H438l-3.5,7.9l-11.7,18.8h-3.3l-12.4-18.9l-3.4-7.8h-0.4l1.5,10.3v25.3h-10.1V-3.9h9.6L419,19.3
			l2.7,5.5h0.4l2.4-5.7l13.9-23.1h9.6v50.4h-10.7V21.2z"/>
		<path d="M481.1,1.8h-5.8v-5.8h22.2v5.8h-5.8v38.9h5.8v5.8h-22.2v-5.8h5.8V1.8z"/>
	</g>
	<g>
		<g>
			<path class="st0" d="M103.7-7.9c1.1-0.1,2.3-0.3,3.6-0.4c1.4-0.1,2.8-0.2,4.2-0.2c1.5,0,2.9-0.1,4.3-0.1c1.4,0,2.6,0,3.7,0
				c4.8,0,8.9,0.6,12.3,1.9c3.4,1.3,6.2,3,8.4,5.3c2.2,2.3,3.8,4.9,4.8,8.1c1,3.1,1.5,6.5,1.5,10.2c0,3.4-0.5,6.6-1.5,9.8
				c-1,3.2-2.6,6-4.8,8.5c-2.2,2.5-5.1,4.5-8.6,5.9c-3.6,1.5-7.9,2.2-13.1,2.2c-0.8,0-1.9,0-3.3-0.1c-1.4,0-2.9-0.1-4.4-0.2
				s-2.9-0.1-4.2-0.2c-1.3-0.1-2.3-0.2-3-0.3V-7.9z M120.5,0.7c-1.1,0-2.2,0-3.4,0c-1.2,0-2,0.1-2.7,0.2v32.7c0.2,0,0.6,0.1,1.1,0.1
				c0.5,0,1,0,1.6,0.1c0.6,0,1.1,0,1.6,0.1s0.9,0,1.1,0c3.1,0,5.6-0.5,7.6-1.4c2-1,3.6-2.2,4.8-3.8c1.2-1.6,2-3.4,2.5-5.4
				c0.5-2,0.7-4.1,0.7-6.3c0-1.8-0.2-3.6-0.6-5.5c-0.4-1.9-1.2-3.7-2.3-5.3c-1.1-1.6-2.7-2.9-4.6-3.9C125.9,1.2,123.5,0.7,120.5,0.7
				z"/>
			<path class="st0" d="M173.1-7.4c1.2-0.2,2.4-0.4,3.8-0.5c1.4-0.2,2.7-0.3,4.1-0.4c1.4-0.1,2.7-0.2,4.1-0.2c1.3,0,2.5-0.1,3.6-0.1
				c2.5,0,5.1,0.2,7.5,0.6c2.5,0.4,4.7,1.2,6.6,2.2c1.9,1.1,3.5,2.5,4.7,4.4c1.2,1.8,1.8,4.2,1.8,6.9c0,4.1-1,7.5-3.1,10.2
				c-2,2.7-4.9,4.5-8.5,5.4l3.8,2.2l12.6,19.1h-12.4L189.4,23l-5.6-0.9v20.4h-10.7V-7.4z M189.4,0.7c-1.1,0-2.2,0-3.2,0
				c-1,0-1.9,0.1-2.5,0.3v13.9h4.5c3,0,5.4-0.6,7.2-1.7c1.8-1.2,2.6-3.1,2.6-6c0-2.1-0.7-3.7-2.2-4.8C194.3,1.3,192.2,0.7,189.4,0.7
				z"/>
			<path class="st0" d="M232.8,37.6c0-1.8,0.6-3.2,1.7-4.2s2.7-1.5,4.5-1.5c1.9,0,3.5,0.5,4.6,1.5s1.7,2.4,1.7,4.2
				c0,1.7-0.6,3-1.7,4.1s-2.7,1.6-4.6,1.6c-1.9,0-3.4-0.5-4.5-1.6S232.8,39.3,232.8,37.6z"/>
			<path class="st0" d="M279.3,23.9l-18-31.8H274L284,10.6l1.2,5.4h0.4l1.2-5.5l9.7-18.4h11.4l-18,31.8v18.6h-10.7V23.9z"/>
			<path class="st0" d="M354.1,31.7h-17L333,42.5h-10.7l19.7-50.8h7.8l19.8,50.8h-11.3L354.1,31.7z M340.1,23.3h11.5l-3.9-10.5
				l-1.7-8h-0.4l-1.7,8.1L340.1,23.3z"/>
			<path class="st0" d="M433.3,17.2l1.2-10.4H434l-3.5,7.9l-11.7,18.8h-3.3l-12.4-18.9l-3.4-7.8h-0.4l1.5,10.3v25.3h-10.1V-7.9h9.6
				L415,15.3l2.7,5.5h0.4l2.4-5.7l13.9-23.1h9.6v50.4h-10.7V17.2z"/>
			<path class="st0" d="M477.1-2.2h-5.8v-5.8h22.2v5.8h-5.8v38.9h5.8v5.8h-22.2v-5.8h5.8V-2.2z"/>
		</g>
	</g>
</g>
</svg>
