<?xml version="1.0" encoding="utf-8"?>
<!-- Generator: Adobe Illustrator 16.0.0, SVG Export Plug-In . SVG Version: 6.00 Build 0)  -->
<!DOCTYPE svg PUBLIC "-//W3C//DTD SVG 1.1//EN" "http://www.w3.org/Graphics/SVG/1.1/DTD/svg11.dtd">
<svg version="1.1" id="Capa_1" xmlns="http://www.w3.org/2000/svg" xmlns:xlink="http://www.w3.org/1999/xlink" x="0px" y="0px"
	 width="96px" height="96px" viewBox="32 0 96 96" enable-background="new 32 0 96 96" xml:space="preserve">
<g>
	<path fill="#F9F9F9" d="M122.244,3.465H38.489c-1.271,0-2.301,1.03-2.301,2.301v84.502c0,1.271,1.03,2.301,2.301,2.301h27.843
		v-0.021c1.257-0.015,2.22-0.718,2.264-1.909c0.114-3.094,0.034-6.194,0.034-9.186c-2.243,0.104-4.383,0.388-6.5,0.266
		c-4.668-0.269-8.256-2.261-10.116-6.832c-1.102-2.708-2.763-5.024-5.349-6.57c-0.483-0.289-0.905-0.715-1.275-1.146
		c-0.483-0.563-0.393-1.143,0.371-1.297c0.77-0.156,1.611-0.266,2.37-0.123c2.982,0.559,5.044,2.43,6.622,4.916
		c3.121,4.922,7.925,6.428,13.33,4.155c0.301-0.126,0.685-0.434,0.741-0.714c0.436-2.179,1.25-4.164,2.891-5.906
		c-1.824-0.338-3.514-0.586-5.17-0.971c-4.771-1.104-9.058-3.09-12.192-7.035c-2.557-3.217-3.727-6.984-4.264-10.993
		c-0.842-6.28-0.088-12.158,4.224-17.176c0.218-0.253,0.336-0.772,0.239-1.088c-1.08-3.529-0.915-7.028,0.156-10.518
		c0.562-1.833,0.718-1.924,2.588-1.668c0.114,0.016,0.226,0.044,0.339,0.063c3.749,0.62,6.976,2.436,10.154,4.384
		c0.427,0.262,1.078,0.425,1.547,0.311c7.592-1.842,15.169-1.834,22.759,0.007c0.441,0.106,1.029-0.045,1.451-0.266
		c1.728-0.903,3.382-1.953,5.132-2.81c2.036-0.996,4.181-1.745,6.489-1.703c0.404,0.008,1.029,0.394,1.165,0.75
		c1.39,3.681,1.682,7.432,0.575,11.262c-0.118,0.409,0.057,0.991,0.277,1.395c1.092,2.004,2.617,3.854,3.309,5.981
		c2.107,6.481,1.34,12.899-1.529,18.99c-2.628,5.583-7.503,8.413-13.273,9.872c-1.949,0.492-3.945,0.791-6.049,1.204
		c2.756,2.878,3.188,6.392,3.139,10.069c-0.051,3.795-0.037,7.591-0.039,11.387c-0.001,1.838,0.802,2.854,2.202,2.914
		c-0.001,0.006,29.604,0.006,29.604,0.006V5.766C124.544,4.495,123.514,3.465,122.244,3.465z"/>
</g>
</svg>
