<?xml version="1.0" encoding="utf-8"?>
<!-- Generator: Adobe Illustrator 16.0.0, SVG Export Plug-In . SVG Version: 6.00 Build 0)  -->
<!DOCTYPE svg PUBLIC "-//W3C//DTD SVG 1.1//EN" "http://www.w3.org/Graphics/SVG/1.1/DTD/svg11.dtd">
<svg version="1.1" id="Layer_6" xmlns="http://www.w3.org/2000/svg" xmlns:xlink="http://www.w3.org/1999/xlink" x="0px" y="0px"
	 width="100px" height="100px" viewBox="0 0 100 100" enable-background="new 0 0 100 100" xml:space="preserve">
<path fill="#2F2F2F" d="M88.708,31.654H57V18.718c0-3.866-3.134-7-7-7s-7,3.134-7,7v12.937H11.292c-1.198,0-2.17,0.972-2.17,2.17
	v52.286c0,1.199,0.973,2.172,2.17,2.172h77.416c1.198,0,2.17-0.973,2.17-2.172V33.824C90.878,32.626,89.906,31.654,88.708,31.654z
	 M50,15.219c1.934,0,3.5,1.566,3.5,3.499c0,1.933-1.566,3.5-3.5,3.5c-1.933,0-3.5-1.567-3.5-3.5
	C46.5,16.785,48.067,15.219,50,15.219z M37.924,80.457H16.94v-3.98h20.984V80.457z M37.924,69.498H16.94V65.52h20.984V69.498z
	 M45.158,58.221H16.94v-3.979h28.218V58.221z M82.33,81.282h-3.059c0.181-3.718-1.532-7.625-1.532-7.625
	c-0.58-1.288-4.119-2.403-4.119-2.403c-1.89-0.665-1.902-1.328-1.902-1.328c-3.711,7.313-6.528,0.021-6.528,0.021
	c-0.26,0.984-4.078,2.144-4.078,2.144c-1.116,0.431-1.588,1.072-1.588,1.072c-1.65,2.448-1.844,7.896-1.844,7.896
	c0,0.086,0.01,0.15,0.016,0.225h-1.685V53.064H82.33V81.282z M85.314,44.654c0,1.198-0.974,2.171-2.172,2.171H16.942
	c-1.198,0-2.172-0.973-2.172-2.171v-3.799c0-1.198,0.974-2.169,2.172-2.169H43v4.031h14v-4.031h26.143
	c1.198,0,2.172,0.971,2.172,2.169V44.654z M64.251,66.059c0.286,2.354,2.312,4.791,4.146,4.791c2.11,0,4.117-2.563,4.43-4.791
	c0.121-0.086,0.313-0.289,0.387-0.752c0,0,0.451-1.613-0.148-1.441c0.209-0.621,0.898-3.043-0.438-4.549c0,0-0.626-0.854-2.147-1.31
	l-0.709-0.245c-0.281-0.203-0.845-0.682-0.845-1.214c0,0-0.353,0.163-0.562,0.466c0.082-0.246,0.22-0.479,0.438-0.666
	c0,0-0.229,0.118-0.444,0.379c-0.164,0.092-0.543,0.352-0.67,0.813l0.006-0.029c0,0-0.076-0.105-0.287-0.136
	c-0.209-0.028-0.575,0.11-0.575,0.11s-2.218,0.865-2.86,2.861c0,0-0.383,0.902,0.121,3.553c-0.712-0.336-0.227,1.408-0.227,1.408
	C63.939,65.771,64.135,65.973,64.251,66.059z M68.291,56.813c-0.107,0.15-0.201,0.338-0.244,0.566l-0.08-0.029
	C68.027,57.154,68.131,56.973,68.291,56.813z"/>
</svg>
