<?xml version="1.0" encoding="utf-8"?>
<!-- Generator: Adobe Illustrator 16.0.0, SVG Export Plug-In . SVG Version: 6.00 Build 0)  -->
<!DOCTYPE svg PUBLIC "-//W3C//DTD SVG 1.1//EN" "http://www.w3.org/Graphics/SVG/1.1/DTD/svg11.dtd">
<svg version="1.1" id="Layer_1" xmlns="http://www.w3.org/2000/svg" xmlns:xlink="http://www.w3.org/1999/xlink" x="0px" y="0px"
	 width="97.391px" height="83.032px" viewBox="0 0 97.391 83.032" enable-background="new 0 0 97.391 83.032" xml:space="preserve">
<path fill="#F9F9F9" d="M0.001,0.393h17.5v8.75h-17.5V0.393z M0.001,12.643h17.5v59.501h-17.5V12.643z M3.209,61.131
	c0,3.021,2.446,5.47,5.469,5.47c3.021,0,5.469-2.447,5.469-5.47c0-3.021-2.447-5.469-5.469-5.469
	C5.656,55.663,3.209,58.113,3.209,61.131z M0.001,82.644h17.5v-7h-17.5V82.644z M21.001,74.42v1.224v7h22.75v-8.267
	c-0.93-0.664-3.815-2.233-10.5-2.233C26.914,72.144,22.867,73.564,21.001,74.42z M21.001,24.077
	c1.866,0.854,5.913,2.276,12.25,2.276c6.643-0.001,9.536-1.55,10.5-2.245v-6.215h-22.75V24.077z M21.001,27.866v42.763
	c2.534-0.947,6.592-1.984,12.25-1.984c5.104,0,8.417,0.854,10.5,1.766V28.088c-2.083,0.91-5.396,1.765-10.5,1.765
	C27.593,29.851,23.535,28.814,21.001,27.866z M80.86,0l-12,2.462l1.761,8.571l12-2.462L80.86,0z M95.28,70.29l-11.997,2.463
	l-11.962-58.29l12-2.462L95.28,70.29z M91.117,59.9c-0.607-2.957-2.972-4.971-5.275-4.498c-2.307,0.476-3.688,3.259-3.078,6.216
	c0.607,2.957,2.969,4.973,5.275,4.498C90.346,65.642,91.725,62.861,91.117,59.9z M95.985,73.713l-12.002,2.463l1.408,6.855l12-2.463
	L95.985,73.713z M49.001,9.143h17.5v-8.75h-17.5V9.143z M49.001,82.644h17.5v-7h-17.5V82.644z M49.001,63.394h17.5V21.393h-17.5
	V63.394z M49.001,72.144h17.5v-5.25h-17.5V72.144z M49.001,17.893h17.5v-5.25h-17.5V17.893z"/>
</svg>
